<?xml version="1.0" encoding="UTF-8"?><svg id="a" xmlns="http://www.w3.org/2000/svg" width="512pt" height="512pt" viewBox="0 0 512 512"><path d="M184.6,181.09c-1.6,3.53-1.55,6.24-.59,9.91,1.31-9.26,1.84-8.58,6.99-15.99-1.54-1.4-5.86,4.89-6.4,6.08Z" fill="none"/><path d="M317,377.01c-6.7-.8-19.34-8.68-25.42-8.01-3.2.35-22.49,10.32-22.56,12.5,21.21,10.32,30.72,16.54,47.98-4.49Z" fill="none"/><rect x="344.59" y="240.74" width="5.82" height="1.51" transform="translate(-37.8 416.5) rotate(-59.23)" fill="none"/><polygon points="411 145.98 407.62 142.08 387.05 156.48 389.5 159.99 411 145.98" fill="none"/><path d="M378,193.5v-20.5c-83.73,44.15-81.78,77.19-78.99,164,21.61-11.53,23.12-13.7,24.1-38.39,4.71-33.36,20.11-63.84,41.91-89.09,3.37-3.91,12.98-11.1,12.98-16.02Z" fill="none"/><path d="M183.4,201.9c4.96-3.58-1.47-6.41-2.83-8.95-4.87-9.08,5.77-25,16.44-22.95l-1.49-6.99c-7.86,3.88-17.55,9.95-18.52,19.48-.46,4.5-1.86,25.38,6.41,19.41Z" fill="none"/><path d="M303,68v-21.5c0-.24,1.09-.78,1.01-1.49-38.67-9.46-85.36-8.1-121.56,7.96l.56,25.02c6.92-2.64,10.63-.02,13.64,6.07,15.85-5.18,32.84-11.47,49.81-12.12,8.05-.49,20.69,1.43,27.84-.16,3.67-.82,5.17-5.26,8.21-5.78,6.9-1.19,13.69,1.86,20.49,1.99Z" fill="none"/><path d="M186,95.99c35.42-19.3,90.05-20.81,128.23-8.72,5.73,1.88,11.12,4.69,16.77,6.72-41.12-24.23-105.1-25.5-145,2Z" fill="none"/><path d="M176.98,173.5c-.04-1.55-25.45-9.72-28.98-10.5v2.96c8.16,1.11,17,7.5,24.72,8.83,2,.34,2.96.56,4.26-1.29Z" fill="none"/><path d="M391.03,115.51c-6.43-13.43-20.78-19.02-30-30.02-1.57-.7-4.98,1.93-6.76,2.3-7-.65-39.73-6.92-38.28-17.79-10.61,9.25-26.12-6.32-35.99,2.99,84.68,14.74,57.51,34.38,105.99,58.01.16-2.98-.47-6.12.45-9.05.8-2.54,4.62-4.41,4.59-6.43Z" fill="none"/><path d="M348.54,52.9c1.69-.04,6.66-3.43,8.19-4.64.78-.62,1.86.09,1.27-2.26-7-.4-18.66-7.58-25.05-5.56-2.59.82-4.91,4.26-7.95,4.56,4.12,5,17.18,4.99,23.54,7.89Z" fill="none"/><path d="M324.2,52.3c7.57,2.6,16.1,4.28,23.8,6.69,2.49-5.78-19.09-8.59-23.22-10.28-4.7-1.14-5.38,1.94-.58,3.59Z" fill="none"/><path d="M307,46.5v22.5c3.33.41,5.92-1,8-3.5-8.96-2.89-4.87-18.9,1.04-22.96,1.42-.98,6.98-2.5,6.97-3.05-2.37-7.35-15.25,3.45-16.01,7.01Z" fill="none"/><path d="M357.8,62.3c-2.94,4.57-2.67,10.24,1.7,13.69l1.49-15.99c-2.02-.41-2.34.96-3.2,2.3Z" fill="none"/><path d="M340.26,59.24c-6.43-2.63-13.51-3.82-20.26-5.24v18.5c6.9,5.74,17.49,6.91,26,9.5-.01-4.01-1.19-7.39-1.04-11.53.26-7.48,3.85-7.73-4.69-11.22Z" fill="none"/><path d="M152,160.99l26.36,8.79,13.64-9.77-26.52-7.93c-2.92.04-11.57,6.26-13.48,8.91Z" fill="none"/><path d="M350.08,83.92c4.02.25,8.31-1.38,10.92-4.43-15.19-3.26-9.16-24.06,4-24.5l-1.98-4.55c-15.65-.18-15.61,23.08-12.94,33.48Z" fill="none"/><path d="M313.16,58.26l2.35,3.73c.38-6.11.99-11.76,4.5-16.99-2.54-2.53-8.17,11.07-6.84,13.26Z" fill="none"/><path d="M367,146.5c.77,1.63,16.18,6.83,18.44,6.52l20.56-13.01-19.37-5.76-19.62,12.25Z" fill="none"/><path d="M124.99,117.99c1.43-6.92,11.46-11.21,13.33-17.16,1.9-6.02-1.84-14.38-1.33-20.83-12.37,6.35-20.31,26.84-12,37.99Z" fill="none"/><path d="M287,338v-81.5c0-1.55-6.26-17.05-7.58-19.42-12.53-22.56-38.36-27.91-60.41-36.59-10.05-3.96-19.68-9.18-30.01-12.49,0,0,0,22.5,0,22.5,39.18,31.33,62.41,57.06,70.89,109.11-2.55,13.97,18.18,13.83,27.11,18.39Z" fill="none"/><path d="M369,415.99l-16.5-8.06-17.48,7.57c8.93,11.39,23.18,5.62,33.98.49Z" fill="none"/><path d="M379.5,406.67l20.48-15.17c-17.99-14.57-25.19-7.36-39.98,6.49l19.5,8.67Z" fill="none"/><path d="M334.86,368.64c-12.36-7.4-17.32-27.32-14.87-40.64l-10.79,7.18c1.03,28.31,18.77,50.21,48.79,38.3,32.1-14.5,54.57-53.13,62-86.48-10.6,31.64-42.63,100.05-85.13,81.63Z" fill="none"/><path d="M389.99,356c-11.1,11.49-49.27,32.23-63.55,39.99-1.14,1.64,2.52,14.68,6.08,15.05l20.31-7.2c1.11-9.24,22.89-27.64,32.17-23.83-.78-11.73,12.14-9.77,4.99-24Z" fill="none"/><path d="M393.02,119.5c-.02,1.05,11.38,3.77,13.51,4.48,12.02,6.81,13.54,3.16,23.8-4.16,87.85-46-10.79-55.28-53.37-66.37l-9.94,6.54c25.71,6.2,54.66,37.2,26.01,59.51Z" fill="none"/><path d="M382,186c10.09,2.15,5.82-22.31,3.03-27.28-2.04-2.71-20.25-10.67-22.03-8.73l-.06,4.41c22.94,6.92,18.92,10.98,19.06,31.6Z" fill="none"/><path d="M377.48,94.02c5.48,4.51,12.32,11.63,15.62,17.88,3.43,2.27,7.21-7,7.67-9.63,3.45-20-20.34-35.14-36.77-40.27,1.05,19.73-5.44,20.54,13.48,32.02Z" fill="none"/><path d="M347.48,153.08c-41.82,23.53-91.68,24.51-136.91,12.92-3.86.4-13.46,8.98-16.57,11.99,89.19,34.93,94.95,48.19,177.7-13.77,1.02-.62,1.78.16,1.3-2.2l-25.52-8.93Z" fill="none"/><polygon points="147.43 72.98 148.01 76 169.57 65.02 169 62 147.43 72.98" fill="none"/><polygon points="170.81 85.82 170 69 150.49 78.99 151.01 97 170.81 85.82" fill="none"/><path d="M170.01,112.01c-7.86,20.57,6.31,35.1,22.68,44.81,7.02,4.14,11.45,7.79,19.41,4.71,34.89,11.22,81.25,11.47,115.59-3.34,8.18-3.7,14.89-9,24.3-9.7,7.02-3.14,9.96-17.83,8.78-24.76-2.39-10.01-14.97-23.63-24.77-26.72,84.68,77.61-184.24,100.03-165.99,15Z" fill="none"/><path d="M375.53,170.03l1.47-5.03c-95.64,63.12-78.79,55.65-184.23,15.66-4.02-.73-3.86,3.83-.49,5.56,105.4,36.16,100.34,45.41,97.73,152.77h5.99c.18-3.14-.24-6.36,0-9.5-1.12-95.95-4.37-106.09,79.53-159.47Z" fill="none"/><path d="M146,168v20.5c6,7.95,19.25,8.02,27.99,12.5-1.04-7.38-1.93-15.08.07-22.4l-28.07-10.6Z" fill="none"/><path d="M137.67,130.87c1.57.14,8.4-6.82,10.4-8.29,5.17-3.82,13.07-7.41,17.43-11.57,7.26-9.87,15.67-19.4,27.4-24.1-.4-12.68-10.84-.64-17.9-4.9,1.92,9.61-24.84,22.4-33.01,21.45-7.65,12.29-25.51,15.73-4.32,27.42Z" fill="none"/><path d="M153.38,146.05c-25.53,8.73-24.09,19.6-21.37,43.95,2.54.6,9.28-2.27,9.91-4.67.78-3.02-5.17-5.37-5.86-9.88-2-13.16,7.51-21.58,19.87-22.53l-2.55-6.87Z" fill="none"/><path d="M141.99,177l2-15c-4.73,2.84-7.07,11.37-2,15Z" fill="none"/><path d="M303.51,41.09l12.48-7.08c-55.75-16.77-83.65-36.12-138.67-.19-5.72,3.12-12.8,6.79-17.32,11.17,6.82.26,13.66,4.9,20.51,4.84,38.34-15.38,82.44-17.52,123.01-8.75Z" fill="none"/><path d="M391.76,192.26c-13.27,2.73-15.98,15.11-26.28,22.72l-14.47,21.02c18.29-23.49,59.98-61.77,73.98-13-1.43-18.94-12.33-35.04-33.23-30.73Z" fill="none"/><rect x="379.09" y="401.58" width="26.01" height="2.4" transform="translate(-164.7 325.65) rotate(-37.88)" fill="none"/><path d="M152.29,412.16l-2.24-.12-1.05,2.95c9.15,2.56,17.81,7.27,26.7,10.82.97.39,2.89,1.99,3.3-.32-2.49-5.93-20.66-8.83-26.7-13.33Z" fill="none"/><path d="M390,376.5c-.62,4.1,3.41,3.19,5.71,4.29,12.8,8.07,10.25,16.37,10.29,29.21,3.38.79,4.31-2.1,4.76-4.74.41-2.41.7-20.25.09-21.12l-20.85-7.64Z" fill="none"/><path d="M358.01,400l-.95,5.93c16.75,4.82,22.04,10.03,17.94,28.07l3.88-.11c2.7-6.03,3.09-17.93-1.01-23.25-1.46-1.89-19.18-11.53-19.86-10.63Z" fill="none"/><path d="M298,454.5l1.01-59.5h-6.01l-.04,44.55c1.18,16.92,5.11,37.39-9.44,49.46-1.96,1.62-5.1,1.28-4.51,3.99,11.12.5,21.91-1.28,31.99-6.01-13.16-4.96-13.35-20.44-13-32.49Z" fill="none"/><path d="M198,418.99l-1.03-3.97c-1.86-2.71-16.14,10.42-16.97,14.48-.83,4.05,0,13.21,0,18,0,2.99,3.66,3.08,5.75,1.75,2.23-.83,2.79-2.91,2.07-5.09-12.88-5.23-.94-26.57,10.17-25.16Z" fill="none"/><path d="M187.01,440l1.5-8.98,8.49-9.01c-7.78,1.91-12.46,10.35-9.99,17.99Z" fill="none"/><path d="M372,419c-35.08,18.71-49.31-3.05-51.99-36.53-.34-1.08.73-1.8-1.5-1.47l-15.37,12.64c-1.96,19.52-.77,39.23-1.1,58.9-2.06,9.82-1.49,33.72,13.74,30.8,3.99-1.2,18.15-12.28,22.54-15.52,10.57-9.14,29.54-18.69,33.68-32.32.7-5.02-.51-11.31,0-16.5Z" fill="none"/><path d="M480.99,257s-14.8,10.69-14.8,10.69c-4.87,40.95-16.6,87.62-50.71,114.29l-1.48,24.02c63.27-45.8,66.91-66.45,67-142.49.18-2.15-.09-4.36-.01-6.51Z" fill="none"/><path d="M384,413.5v16.5c12.32-6.84,21.63-14.28,17.5-30l-17.5,13.5Z" fill="none"/><path d="M434,165.52c8.4,10.73,11.49,24.09,12.49,37.49l19.51,9.99c2-18.65-4.54-61.51-32-47.48Z" fill="none"/><path d="M471.55,105.05c-14.07,5.31-32.2,24.22-46.11,31.95.78,9.18,1.2,18.48-1.46,27.49,34.42-19.49,48.19,16.37,46.01,45.51,4.91-3.4,13.47-9.83,14.76-15.74,2.55-11.62.66-24.91,1.2-36.81-.58-15.32,12.1-55.41-14.41-52.4Z" fill="none"/><path d="M175.13,77.86l4.87,1.13-2.22-25.77c-4.91-1.53-17.35-6.79-21.77-4.72l-2,3.49c16.88,1.67,20.71,10.17,21.13,25.87Z" fill="none"/><path d="M391.49,161.98c-1.46,5.37,1.81,13.62-.48,20.02,6.02-4.23,18.22-8.96,19.76-16.73,1.16-5.82.76-11.45.22-17.27-3.04,3.53-17.95,10.99-19.5,13.98Z" fill="none"/><path d="M393.16,350.71c-1.29,4.18,3.25,9.6,3.76,13.82-.05,3.16-5.68,6.55-2.94,8.98,1.54,1.37,17.07,6.65,18.97,6.01,31.95-24.46,46.25-72.4,48.9-111.37-6.38-1.98-11.98-6.94-17.85-9.66-1.37-.64-1.52-.77-2.49.53-2.82,7.03-5.25,16.92-10.51,22.49-8.97,4.34-9.07,17.45-12.26,26.74-4.93,15.16-16.15,30.44-25.59,42.45Z" fill="none"/><path d="M464.37,264.82c3.91-4.56,15.77-9.36,16.63-14.81-6.72-.43-20.64-7.98-26.46-7.03-2.91.48-10.27,9.59-9.46,12.38l19.29,9.46Z" fill="none"/><path d="M391.57,123.05l-2.55,7.92c22.23,4.41,31.15,11.24,24.97,35.03l4.41.86c3.74-.73,3.91-18.96,3.64-22.4-1.37-17.44-17.64-15.65-30.47-21.41Z" fill="none"/><path d="M481,102c1.12-1.06-8.16-15.4-10.99-16,.3,21.08-40.27,31.68-48.93,44.63l1.94,4.37,44.07-31.41c4.98-2.55,8.51-2.75,13.9-1.6Z" fill="none"/><path d="M289.9,394.09l-23.9-8.1c-2.35,38.95-36.58,62.48-74,50.01l1.93,21.32c18.76,9.99,39.48,20.54,59.54,27.7,57.24,25.23,32.63-61.84,36.43-90.93Z" fill="none"/><rect x="103.01" y="280" width=".98" height="5.99" fill="none"/><path d="M57,241.99l15.45-8.04,7.69-25.31,8.86-16.64c-22.79,3.91-29.66,30.34-32,49.99Z" fill="none"/><path d="M126.85,162.15C27.44,121.33,21.86,118.48,33.94,232.56c1.78,2.76,18.71,9.88,20.06,8.44.06-19.03,8.97-42.89,27.31-51.19,15.09-6.83,31.28-3.56,46.69.19l-1.14-27.85Z" fill="none"/><path d="M256,408c-44.41.96-86.66-21.66-118.63-50.93l-10.26,11.61c-.36,1.67,9.89,12.18,11.87,13.84,6.64,5.59,17.18,8.84,16.02,19.48,4.56-.33,6.36-4.08,11.49-4.09,10.12,2.78,34.91,8.14,35.51,22.09,6.28-4.23,14.52.4,21.49,1,10.23.66,28.64-2.38,32.49-12.99Z" fill="none"/><path d="M247.51,352.01c-8.44,28.1-40.66,37.57-66.46,28.43-1.03-.22-3.27-1.32-3.05.55,51.52,22.75,91.83-19.75,75.71-71.21-10.92-85.29-147.59-163.87-151.71-32.79,1.76.23.93-2.26.99-3.49,12.8-132.92,178.66-4.35,144.51,78.5Z" fill="none"/><path d="M120.48,157.02c1.96.65,8.6,3.71,9.51.47.42-1.48-.13-2.8-1.68-3.3-17.04-8.74-81.75-21.33-78.32-43.19-3.89,2.79-7.31,7.59-9.8,11.69-1.33,2.18-7.51,13.71-6.19,15.31,24.07-18,61.23,12.89,86.47,19.02Z" fill="none"/><path d="M149.49,417.01c-2.69,6.46-.86,13.26.74,19.76l25.76,11.24v-15.5c0-.49,1.65-2.13.98-3.47l-27.49-12.03Z" fill="none"/><path d="M146.26,69.84c3.17-1.43,17.6-7.29,19.74-10.83l-15.42-4.01-19.58,10.99c4.63-.12,11.08,4.64,15.26,3.85Z" fill="none"/><path d="M113.26,145.24c4.59,1.69,14.19,6.84,18.24,6.85,6.17,0,12.83-8.25,19.5-9.1-28.71-11.35-47.85-40.8-18.01-64.49-15.57-9.93-27.02-4.28-41.66,4.32-10.22,6.45-26.16,14.61-35.26,21.74-17.62,22.8,43.39,34.2,57.2,40.68Z" fill="none"/><path d="M142,100c9.38,2.72,4.16-20.45,2.45-24.95-1.29-2.02-9.64-5.37-12.18-5.81-2.48-.44-7.11-1.2-8.27,1.76,21.56,3.65,17.71,10.48,18,29.01Z" fill="none"/><path d="M57.88,299.12l-21.88-9.11c6.04,37.68-7.5,81.54,27.07,108.42,19.14,14.88,46.51,23.8,68.92,32.57l-2.47-25.02c-37.96-21.17-67.31-63.28-71.64-106.86Z" fill="none"/><path d="M193.02,431.5c16.46,7.81,40.65,4.39,52.98-9.49-17.3,4.4-22.62,3.35-39.28.17-2.14.31-13.67,7.91-13.7,9.32Z" fill="none"/><path d="M141.44,427.06c-8.66-5.85-.64-25.26,9.54-26.1l-1.47-3.95c-3.18,2.92-13.08,6.69-14.77,10.22-2.62,5.5.72,19.36,1.27,25.76l8.98-4.01c.11-1.63-2.11-.95-3.55-1.93Z" fill="none"/><path d="M74.51,286.02c4.41-4.21-3.83-7.09-7.53-8.51-10.37-3.99-11.88-2.62-20.91,3.06-2.76,1.74-6.36,3.7-8.07,6.41l22.44,9.03c1.75-.24,12.29-8.29,14.08-10Z" fill="none"/><path d="M146.99,393.51c-17.14-12.03-40.96-35.37-27.41-57.5,0,0-10.57-20.57-10.57-20.57-16.11,7.71-29.21-13.43-30.03-27.44l-3.01.49-14.62,11.96c3.99,39.11,35.6,84.24,69.61,102.12,4.64,1.29,10.84-4.53,14.76-7.32.69-.5,1.71.24,1.26-1.73Z" fill="none"/><path d="M154,408.02c-.28,5.33,21.73,10.1,26.52,12.98l11.2-7.73,1.27-2.25-27.51-9.62s-11.49,6.62-11.49,6.63Z" fill="none"/><path d="M144.97,416.47c.66-5.32,4.01-7.59,7.03-11.46-8.62.32-11.83,12.08-8.99,18.99,2.97,2.41,1.82-6.42,1.96-7.53Z" fill="none"/><path d="M122.01,339c-4.09,8.67-1.88,16.77,2,25,1.91.46,1.93-.7,2.81-1.67,1.07-1.17,7.01-8.27,7.01-8.83l-11.82-14.49Z" fill="none"/><path d="M402.78,55.72c-11.27-2.96-23.77-11.86-33.77-1.72-1.72-13.03-25.13-17.75-35.3-17.78-1.66.36-5.61,3.44-6.62,2.72-1.73-5.26-5.09-6.76-9.82-8.7l-71.27-21.23h-22c-19.29,6.61-66.3,23.94-74.72,42.04-9.21,4.81-22.08,8.37-28.27,17.47-3.04,1.57-5.81-.7-9.03-.12-2.74.5-11.5,4.91-14.66,6.43C30.74,104.3,18.26,139.45,28.01,209.5c.69,9.13-2.71,22.15,5.49,28.5,3.33,2.58,19.97,9.25,23.99,9.07,2.82-.12,13.05-5.71,15.46-7.63,6.04-4.81,7.33-19.97,10.29-27.71,1.54-4.02,9.29-18.48,12.19-20.81,1.86-1.49,4.36-.87,6.57-.92-15.57,39.84-9.35,82.84,5.01,121.99-19.75,6.12-20.91-21.8-27.98-32.52-2.32-2.5-18.15-9.6-21.44-9.44-3.96.2-21.31,11.05-23.6,14.45-4.42,6.57-.4,17.49.06,24.97-3.7,74.22,14.25,96.43,83.93,120.07,9.28,3.75,18.08,11.94,27.01,3.48,1.48,8.27,14.06,13.02,21.33,16.18,6.47,2.81,14.54,7.36,21.12,3.85l1.07.96c-.49,14.56,88.42,46.4,101.99,43.01,19.19.18,79.82-40.87,84.5-59.01,5.17,3.7,32.38-18.17,30.03-23.96l4.43-.06c78.34-53.3,74.3-75.43,76.39-164.28-1.31-4.45-17.35-7.82-21.85-9.2-22.84-10.23-26.32,26.76-37,38.51,10.44-50.92,3.13-59.89-16.06-105.5l1.69-2.36c3.44-.61,7.29.42,10.66-.34,1.97-.44,5.47-4.13,6.72-3.37,10.13,11,9.71,25.22,13.5,38.55,2.35,3.26,19.92,11.57,23.74,10.86,3.56-.66,15.21-11.13,17.72-14.36,9.21-13.8,2.51-36.55,7.02-52.48,6.68-67.51-31.6-83.22-89.22-94.28ZM376.95,53.45c42.58,11.09,141.22,20.37,53.37,66.37-10.25,7.32-11.78,10.97-23.8,4.16-2.13-.71-13.53-3.42-13.51-4.48,28.65-22.31-.3-53.31-26.01-59.51l9.94-6.54ZM400.77,102.27c-.45,2.63-4.24,11.9-7.67,9.63-3.3-6.25-10.14-13.37-15.62-17.88-18.93-11.47-12.44-12.28-13.48-32.02,16.43,5.14,40.22,20.27,36.77,40.27ZM362.94,154.4l.06-4.41c1.78-1.95,20,6.01,22.03,8.73,2.79,4.97,7.06,29.43-3.03,27.28-.14-20.62,3.88-24.68-19.06-31.6ZM385,380c-9.28-3.81-31.06,14.59-32.17,23.83l-20.31,7.2c-3.56-.37-7.22-13.41-6.08-15.05,14.29-7.75,52.46-28.49,63.55-39.99,7.15,14.23-5.78,12.27-4.99,24ZM399.98,391.5l-20.48,15.17-19.5-8.67c14.79-13.85,21.99-21.07,39.98-6.49ZM369,415.99c-10.81,5.13-25.06,10.9-33.98-.49l17.48-7.57,16.5,8.06ZM357.99,373.49c-30.02,11.9-47.75-9.99-48.79-38.3l10.79-7.18c-2.45,13.32,2.51,33.24,14.87,40.64,42.49,18.42,74.53-49.99,85.13-81.63-7.43,33.36-29.91,71.98-62,86.48ZM189,210.5s0-22.5,0-22.5c10.33,3.31,19.96,8.53,30.01,12.49,22.05,8.68,47.88,14.03,60.41,36.59,1.32,2.37,7.58,17.87,7.58,19.42v81.5c-8.93-4.56-29.65-4.42-27.11-18.39-8.48-52.05-31.71-77.78-70.89-109.11ZM173.99,201c-8.74-4.48-22-4.55-27.99-12.5v-20.5l28.07,10.6c-2.01,7.31-1.11,15.02-.07,22.4ZM136.05,175.45c.69,4.5,6.64,6.85,5.86,9.88-.62,2.4-7.37,5.28-9.91,4.67-2.72-24.35-4.15-35.22,21.37-43.95l2.55,6.87c-12.37.95-21.88,9.37-19.87,22.53ZM143.99,162l-2,15c-5.07-3.63-2.73-12.16,2-15ZM138.32,100.83c-1.88,5.95-11.91,10.25-13.33,17.16-8.31-11.15-.37-31.64,12-37.99-.51,6.45,3.23,14.81,1.33,20.83ZM141.99,103.45c8.18.95,34.93-11.84,33.01-21.45,7.06,4.26,17.49-7.78,17.9,4.9-11.72,4.71-20.14,14.24-27.4,24.1-4.36,4.16-12.26,7.75-17.43,11.57-2,1.48-8.84,8.43-10.4,8.29-21.2-11.68-3.33-15.13,4.32-27.42ZM148.01,76l-.58-3.02,21.57-10.98.57,3.02-21.56,10.98ZM170,69l.81,16.81-19.8,11.18-.52-18.01,19.5-9.99ZM336,97.01c9.8,3.09,22.38,16.71,24.77,26.72,1.18,6.93-1.76,21.62-8.78,24.76-9.42.7-16.13,5.99-24.3,9.7-34.34,14.81-80.7,14.55-115.59,3.34-7.96,3.08-12.39-.57-19.41-4.71-16.36-9.7-30.54-24.24-22.68-44.81-18.25,85.03,250.67,62.61,165.99-15ZM296,329.5c-.24,3.14.17,6.37,0,9.51h-5.99c2.61-107.37,7.67-116.62-97.73-152.78-3.37-1.73-3.54-6.28.49-5.56,105.44,39.99,88.6,47.46,184.23-15.66l-1.47,5.03c-83.9,53.37-80.65,63.52-79.53,159.47ZM371.7,164.22c-82.74,61.96-88.51,48.71-177.7,13.77,3.12-3.02,12.71-11.6,16.57-11.99,45.22,11.59,95.09,10.61,136.91-12.92l25.52,8.93c.48,2.36-.28,1.59-1.3,2.2ZM192,160.01l-13.64,9.77-26.36-8.79c1.91-2.64,10.56-8.87,13.48-8.91l26.52,7.93ZM314.23,87.27c-38.17-12.09-92.81-10.58-128.23,8.72,39.9-27.5,103.88-26.23,145-2-5.66-2.02-11.04-4.84-16.77-6.72ZM274.3,71.8c-7.15,1.59-19.8-.33-27.84.16-16.96.64-33.95,6.93-49.81,12.12-3.01-6.09-6.73-8.72-13.64-6.07l-.56-25.02c36.21-16.06,82.89-17.42,121.56-7.96.07.71-1.01,1.25-1.01,1.49v21.5c-6.8-.13-13.59-3.18-20.49-1.99-3.04.53-4.54,4.97-8.21,5.78ZM172.72,174.79c-7.72-1.33-16.56-7.72-24.71-8.83v-2.96c3.52.78,28.93,8.95,28.97,10.5-1.3,1.85-2.26,1.64-4.26,1.29ZM176.99,182.49c.97-9.53,10.66-15.6,18.52-19.48l1.49,6.99c-10.67-2.05-21.32,13.87-16.44,22.95,1.36,2.54,7.79,5.37,2.83,8.95-8.27,5.98-6.87-14.9-6.41-19.41ZM184.01,191c-.97-3.67-1.02-6.38.59-9.91.54-1.2,4.86-7.48,6.4-6.08-5.15,7.41-5.68,6.73-6.99,15.99ZM291.58,369c6.08-.66,18.72,7.21,25.42,8.01-17.27,21.03-26.77,14.81-47.98,4.49.07-2.18,19.36-12.15,22.56-12.5ZM346.66,244.39l-1.3-.77,2.98-5,1.3.77-2.98,5ZM323.11,298.61c-.97,24.69-2.49,26.86-24.1,38.39-2.79-86.81-4.74-119.85,78.99-164v20.5c0,4.91-9.61,12.11-12.98,16.02-21.8,25.25-37.21,55.72-41.91,89.09ZM387.05,156.48l20.58-14.41,3.38,3.91-21.5,14-2.45-3.5ZM385.44,153.02c-2.25.3-17.66-4.89-18.44-6.52l19.62-12.25,19.37,5.76-20.56,13.01ZM386.44,121.94c-.92,2.93-.29,6.07-.45,9.05-48.49-23.62-21.31-43.27-105.99-58.01,9.87-9.31,25.38,6.26,35.99-2.99-1.45,10.87,31.28,17.14,38.28,17.79,1.77-.37,5.19-3,6.76-2.3,9.21,11,23.56,16.59,30,30.02.03,2.02-3.79,3.89-4.59,6.43ZM315.5,62l-2.35-3.73c-1.33-2.19,4.3-15.79,6.84-13.26-3.51,5.23-4.12,10.88-4.5,16.99ZM346,82c-8.5-2.58-19.09-3.76-26-9.5v-18.5c6.75,1.42,13.83,2.61,20.26,5.24,8.54,3.5,4.95,3.74,4.69,11.22-.14,4.14,1.03,7.52,1.04,11.53ZM365,55c-13.16.44-19.19,21.24-4,24.5-2.61,3.05-6.9,4.68-10.92,4.43-2.67-10.4-2.72-33.66,12.94-33.48l1.98,4.55ZM361,60l-1.49,15.99c-4.37-3.46-4.64-9.12-1.7-13.69.86-1.34,1.18-2.7,3.2-2.3ZM332.95,40.45c6.39-2.02,18.05,5.15,25.05,5.56.58,2.34-.49,1.64-1.27,2.26-1.52,1.21-6.5,4.6-8.19,4.64-6.36-2.9-19.42-2.9-23.54-7.89,3.04-.3,5.36-3.74,7.95-4.56ZM324.77,48.71c4.13,1.69,25.72,4.5,23.22,10.28-7.7-2.41-16.23-4.1-23.8-6.69-4.8-1.65-4.13-4.72.58-3.59ZM323.01,39.49c.01.55-5.55,2.07-6.97,3.05-5.91,4.06-10,20.07-1.04,22.96-2.08,2.51-4.66,3.92-8,3.5v-22.5c.76-3.56,13.64-14.36,16.01-7.01ZM177.32,33.82c55.02-35.93,82.92-16.58,138.67.19l-12.48,7.08c-40.57-8.77-84.67-6.64-123.01,8.75-6.85.06-13.69-4.58-20.51-4.84,4.52-4.38,11.6-8.05,17.32-11.17ZM156,48.5c4.42-2.07,16.86,3.19,21.77,4.72l2.22,25.77-4.87-1.13c-.42-15.7-4.25-24.2-21.13-25.87l2-3.49ZM150.58,55l15.42,4.01c-2.13,3.54-16.57,9.4-19.74,10.83-4.18.79-10.62-3.97-15.26-3.85l19.58-10.99ZM132.27,69.24c2.54.45,10.89,3.8,12.18,5.81,1.71,4.5,6.93,27.67-2.45,24.95-.29-18.52,3.56-25.36-18-29.01,1.16-2.96,5.79-2.19,8.27-1.76ZM56.06,104.56c9.1-7.13,25.04-15.29,35.26-21.74,14.64-8.6,26.1-14.25,41.66-4.32-29.84,23.69-10.69,53.14,18.01,64.49-6.67.85-13.33,9.11-19.5,9.1-4.05,0-13.65-5.16-18.24-6.85-13.81-6.48-74.81-17.88-57.2-40.68ZM40.19,122.69c2.49-4.11,5.91-8.9,9.8-11.69-3.43,21.86,61.28,34.45,78.32,43.19,1.55.5,2.1,1.83,1.68,3.3-.91,3.23-7.56.17-9.51-.47-25.24-6.13-62.4-37.02-86.47-19.02-1.32-1.6,4.86-13.12,6.19-15.31ZM80.14,208.64l-7.69,25.31-15.45,8.04c2.34-19.65,9.21-46.07,32-49.99l-8.86,16.64ZM81.31,189.81c-18.34,8.31-27.25,32.17-27.31,51.19-1.35,1.44-18.28-5.67-20.06-8.44-12.07-114.09-6.5-111.23,92.91-70.42l1.14,27.85c-15.41-3.75-31.6-7.02-46.69-.19ZM103.99,286h-.98v-5.99h.98v5.99ZM103,273.51c-.07,1.23.77,3.71-.99,3.49,4.12-131.09,140.79-52.51,151.71,32.79,16.12,51.46-24.19,93.96-75.71,71.21-.23-1.87,2.02-.77,3.05-.55,25.79,9.14,58.01-.34,66.46-28.43,34.16-82.85-131.71-211.41-144.51-78.5ZM223.5,421c-6.97-.6-15.21-5.23-21.49-1-.6-13.95-25.39-19.31-35.51-22.09-5.13,0-6.93,3.76-11.49,4.09,1.16-10.64-9.38-13.9-16.02-19.48-1.98-1.67-12.23-12.18-11.87-13.84l10.26-11.61c31.96,29.28,74.22,51.89,118.63,50.93-3.86,10.61-22.27,13.65-32.49,12.99ZM246,422.01c-12.33,13.88-36.52,17.3-52.98,9.49.03-1.41,11.56-9.01,13.7-9.32,16.66,3.18,21.98,4.23,39.28-.17ZM193,411.01l-1.27,2.25-11.2,7.73c-4.8-2.88-26.8-7.65-26.52-12.98,0,0,11.49-6.63,11.49-6.63l27.51,9.62ZM126.82,362.32c-.89.97-.9,2.14-2.81,1.67-3.88-8.22-6.09-16.33-2-25l11.82,14.49c0,.56-5.94,7.66-7.01,8.83ZM46.08,280.58c9.03-5.69,10.54-7.06,20.91-3.06,3.69,1.42,11.94,4.3,7.53,8.51-1.79,1.71-12.33,9.76-14.08,10l-22.44-9.03c1.72-2.71,5.32-4.68,8.07-6.41ZM63.08,398.42c-34.58-26.88-21.03-70.74-27.07-108.42l21.88,9.11c4.33,43.57,33.68,85.69,71.64,106.86l2.47,25.02c-22.41-8.78-49.78-17.7-68.92-32.57ZM130.98,402.56c-34.01-17.88-65.62-63.01-69.61-102.12l14.62-11.96,3.01-.49c.82,14.01,13.92,35.15,30.03,27.44,0,0,10.57,20.57,10.57,20.57-13.55,22.13,10.26,45.48,27.41,57.5.45,1.97-.56,1.23-1.26,1.73-3.92,2.8-10.11,8.61-14.76,7.32ZM136.01,433c-.55-6.4-3.89-20.26-1.27-25.76,1.68-3.53,11.58-7.3,14.77-10.22l1.47,3.95c-10.17.84-18.19,20.25-9.54,26.1,1.44.97,3.66.3,3.55,1.93l-8.98,4.01ZM143.01,424c-2.84-6.91.37-18.67,8.99-18.99-3.01,3.87-6.37,6.15-7.03,11.46-.14,1.1,1.01,9.94-1.96,7.53ZM176,432.5v15.5l-25.76-11.24c-1.61-6.5-3.43-13.3-.74-19.76l27.49,12.03c.67,1.34-.98,2.97-.98,3.47ZM175.7,425.81c-8.89-3.55-17.55-8.26-26.7-10.82l1.05-2.95,2.24.12c6.04,4.5,24.22,7.4,26.7,13.33-.4,2.31-2.32.71-3.3.32ZM185.75,449.25c-2.1,1.33-5.75,1.24-5.75-1.75,0-4.79-.83-13.95,0-18,.83-4.07,15.11-17.19,16.97-14.48l1.03,3.97c-11.12-1.41-23.05,19.93-10.17,25.16.72,2.19.16,4.26-2.07,5.09ZM188.51,431.01l-1.5,8.98c-2.48-7.64,2.21-16.08,9.99-17.99l-8.49,9.01ZM253.48,485.02c-20.06-7.16-40.78-17.71-59.54-27.7l-1.93-21.32c37.42,12.47,71.65-11.06,74-50.01l23.9,8.1c-3.8,29.09,20.81,116.16-36.43,90.93ZM279,493c-.59-2.7,2.55-2.37,4.51-3.99,14.56-12.07,10.63-32.54,9.44-49.46l.04-44.55h6.01l-1.01,59.5c-.35,12.05-.16,27.53,13,32.49-10.08,4.72-20.87,6.5-31.99,6.01ZM372,435.5c-4.14,13.63-23.1,23.19-33.68,32.32-4.39,3.24-18.55,14.32-22.54,15.52-15.23,2.92-15.81-20.98-13.74-30.8.33-19.66-.86-39.38,1.1-58.9l15.37-12.64c2.23-.34,1.16.39,1.5,1.47,2.68,33.48,16.91,55.24,51.99,36.53-.51,5.19.7,11.48,0,16.5ZM378.88,433.88l-3.88.11c4.1-18.04-1.2-23.25-17.94-28.07l.95-5.93c.68-.9,18.41,8.75,19.86,10.63,4.1,5.31,3.71,17.21,1.01,23.25ZM384,430v-16.5l17.5-13.5c4.12,15.71-5.19,23.16-17.5,30ZM382.56,411.71l-1.47-1.89,20.52-15.97,1.47,1.89-20.52,15.97ZM410.76,405.26c-.45,2.64-1.38,5.53-4.76,4.74-.04-12.84,2.51-21.14-10.29-29.21-2.3-1.1-6.33-.18-5.71-4.29l20.85,7.64c.61.86.32,18.71-.09,21.12ZM481,263.51c-.09,76.05-3.73,96.69-67,142.49l1.48-24.02c34.1-26.67,45.84-73.35,50.71-114.29,0,0,14.8-10.69,14.8-10.69-.08,2.15.2,4.35.01,6.51ZM454.54,242.98c5.82-.95,19.74,6.6,26.46,7.03-.86,5.45-12.72,10.25-16.63,14.81l-19.29-9.46c-.81-2.78,6.55-11.9,9.46-12.38ZM431.01,281.51c5.26-5.58,7.68-15.46,10.51-22.49.97-1.29,1.11-1.16,2.49-.53,5.87,2.71,11.47,7.68,17.85,9.66-2.65,38.97-16.95,86.91-48.9,111.37-1.89.65-17.42-4.64-18.97-6.01-2.74-2.42,2.89-5.82,2.94-8.98-.51-4.22-5.05-9.64-3.76-13.82,9.44-12.01,20.66-27.29,25.59-42.45,3.18-9.29,3.29-22.4,12.26-26.74ZM424.99,223c-14.01-48.76-55.69-10.48-73.98,13l14.47-21.02c10.3-7.61,13.02-19.99,26.28-22.72,20.9-4.3,31.8,11.79,33.23,30.73ZM410.77,165.27c-1.54,7.76-13.74,12.5-19.76,16.73,2.3-6.39-.98-14.64.48-20.02,1.55-2.99,16.46-10.45,19.5-13.98.54,5.82.93,11.45-.22,17.27ZM418.4,166.86l-4.41-.86c6.18-23.79-2.74-30.62-24.97-35.03l2.55-7.92c12.83,5.77,29.11,3.98,30.47,21.41.27,3.43.1,21.67-3.64,22.4ZM423.02,135l-1.94-4.37c8.66-12.96,49.23-23.55,48.93-44.63,2.83.6,12.11,14.94,10.99,16-5.39-1.16-8.93-.95-13.9,1.6l-44.07,31.41ZM466,213l-19.51-9.99c-1-13.4-4.09-26.76-12.49-37.49,27.46-14.04,34.01,28.83,32,47.48ZM485.96,157.45c-.53,11.9,1.35,25.19-1.2,36.81-1.29,5.91-9.85,12.34-14.76,15.74,2.18-29.14-11.59-65.01-46.01-45.51,2.66-9.01,2.24-18.3,1.46-27.49,13.91-7.73,32.03-26.64,46.11-31.95,26.5-3.01,13.83,37.08,14.41,52.4Z" fill="currentColor"/></svg>